{
    "asset": {
        "generator": "COLLADA2GLTF",
        "version": "2.0"
    },
    "scenes": [
        {
            "nodes": [
                0
            ]
        }
    ],
    "scene": 0,
    "nodes": [
        {
            "children": [
                9,
                8,
                7,
                6,
                5,
                4,
                3,
                2,
                1
            ],
            "matrix": [
                1.0,
                0.0,
                0.0,
                0.0,
                0.0,
                0.0,
                -1.0,
                0.0,
                0.0,
                1.0,
                0.0,
                0.0,
                0.0,
                0.0,
                0.0,
                1.0
            ],
            "name": "Z_UP"
        },
        {
            "mesh": 0,
            "name": "aa19ec59-d9a1-4f31-87f4-00cffc873081"
        },
        {
            "mesh": 1,
            "name": "a8798a9b-e971-459f-8711-3e3fe2613959"
        },
        {
            "mesh": 2,
            "name": "f0e183a9-a341-44f3-947a-8b43f98f46db"
        },
        {
            "mesh": 3,
            "name": "aaf479dd-2525-4c78-bec3-a45c829f2381"
        },
        {
            "mesh": 4,
            "name": "a1227a9f-3ced-4aa0-8b8b-ff7e8e92b1ce"
        },
        {
            "matrix": [
                0.0,
                1.0,
                0.0,
                0.0,
                0.0,
                0.0,
                1.0,
                0.0,
                1.0,
                0.0,
                0.0,
                0.0,
                0.496428906917572,
                0.4131980836391449,
                0.41786623001098635,
                1.0
            ],
            "camera": 0,
            "name": "View-Right"
        },
        {
            "matrix": [
                1.0,
                0.0,
                0.0,
                0.0,
                0.0,
                0.0,
                1.0,
                0.0,
                0.0,
                -1.0,
                0.0,
                0.0,
                0.0951508730649948,
                -0.18302391469478608,
                0.41786623001098635,
                1.0
            ],
            "camera": 1,
            "name": "View-Front"
        },
        {
            "matrix": [
                1.0,
                0.0,
                0.0,
                0.0,
                0.0,
                1.0,
                0.0,
                0.0,
                0.0,
                0.0,
                1.0,
                0.0,
                0.0951508730649948,
                0.4131980836391449,
                0.9721631407737732,
                1.0
            ],
            "camera": 2,
            "name": "View-Top"
        },
        {
            "matrix": [
                -0.997314989566803,
                -0.07322599738836289,
                0.0,
                0.0,
                -0.07031799852848053,
                0.9577149748802184,
                0.27899399399757388,
                0.0,
                -0.02042900025844574,
                0.2782450020313263,
                -0.9602929949760436,
                0.0,
                0.03029870986938477,
                1.296470046043396,
                -2.630523920059204,
                1.0
            ],
            "camera": 3,
            "name": "View-Perspective"
        }
    ],
    "cameras": [
        {
            "orthographic": {
                "xmag": 1.0,
                "ymag": 0.4932331144809723,
                "zfar": 0.7198119163513184,
                "znear": 0.0826663076877594
            },
            "type": "orthographic",
            "name": "Camera-Right"
        },
        {
            "orthographic": {
                "xmag": 1.0,
                "ymag": 0.4932331144809723,
                "zfar": 1.0695019960403445,
                "znear": 0.1228262335062027
            },
            "type": "orthographic",
            "name": "Camera-Front"
        },
        {
            "orthographic": {
                "xmag": 1.0,
                "ymag": 0.4947367608547211,
                "zfar": 0.9942969083786012,
                "znear": 0.11418935656547548
            },
            "type": "orthographic",
            "name": "Camera-Top"
        },
        {
            "perspective": {
                "yfov": 0.446907103061676,
                "zfar": 3.721029281616211,
                "znear": 2.6379096508026125
            },
            "type": "perspective",
            "name": "Camera-Perspective"
        }
    ],
    "meshes": [
        {
            "primitives": [
                {
                    "attributes": {
                        "NORMAL": 1,
                        "POSITION": 2
                    },
                    "indices": 0,
                    "mode": 4,
                    "material": 0
                }
            ],
            "name": "mesh-aa19ec59-d9a1-4f31-87f4-00cffc873081"
        },
        {
            "primitives": [
                {
                    "attributes": {
                        "NORMAL": 4,
                        "POSITION": 5
                    },
                    "indices": 3,
                    "mode": 4,
                    "material": 1
                }
            ],
            "name": "mesh-a8798a9b-e971-459f-8711-3e3fe2613959"
        },
        {
            "primitives": [
                {
                    "attributes": {
                        "NORMAL": 7,
                        "POSITION": 8
                    },
                    "indices": 6,
                    "mode": 4,
                    "material": 2
                }
            ],
            "name": "mesh-f0e183a9-a341-44f3-947a-8b43f98f46db"
        },
        {
            "primitives": [
                {
                    "attributes": {
                        "NORMAL": 10,
                        "POSITION": 11
                    },
                    "indices": 9,
                    "mode": 4,
                    "material": 3
                }
            ],
            "name": "mesh-aaf479dd-2525-4c78-bec3-a45c829f2381"
        },
        {
            "primitives": [
                {
                    "attributes": {
                        "NORMAL": 13,
                        "POSITION": 14
                    },
                    "indices": 12,
                    "mode": 4,
                    "material": 4
                }
            ],
            "name": "mesh-a1227a9f-3ced-4aa0-8b8b-ff7e8e92b1ce"
        }
    ],
    "accessors": [
        {
            "bufferView": 0,
            "byteOffset": 0,
            "componentType": 5123,
            "count": 5808,
            "max": [
                1997
            ],
            "min": [
                0
            ],
            "type": "SCALAR"
        },
        {
            "bufferView": 1,
            "byteOffset": 0,
            "componentType": 5126,
            "count": 1998,
            "max": [
                1.0,
                1.0,
                1.0
            ],
            "min": [
                -1.0,
                -1.0,
                -1.0
            ],
            "type": "VEC3"
        },
        {
            "bufferView": 1,
            "byteOffset": 23976,
            "componentType": 5126,
            "count": 1998,
            "max": [
                0.22583340108394624,
                0.4504879415035248,
                0.5243517160415649
            ],
            "min": [
                -0.09296365082263948,
                -0.017056547105312349,
                0.2037726491689682
            ],
            "type": "VEC3"
        },
        {
            "bufferView": 0,
            "byteOffset": 11616,
            "componentType": 5123,
            "count": 69363,
            "max": [
                14853
            ],
            "min": [
                0
            ],
            "type": "SCALAR"
        },
        {
            "bufferView": 1,
            "byteOffset": 47952,
            "componentType": 5126,
            "count": 14854,
            "max": [
                1.0,
                1.0,
                1.0
            ],
            "min": [
                -1.0,
                -1.0,
                -1.0
            ],
            "type": "VEC3"
        },
        {
            "bufferView": 1,
            "byteOffset": 226200,
            "componentType": 5126,
            "count": 14854,
            "max": [
                0.3847270905971527,
                0.8434526324272156,
                0.6428694128990173
            ],
            "min": [
                -0.1362229287624359,
                -0.017056547105312349,
                0.19286470115184785
            ],
            "type": "VEC3"
        },
        {
            "bufferView": 0,
            "byteOffset": 150342,
            "componentType": 5123,
            "count": 4380,
            "max": [
                1497
            ],
            "min": [
                0
            ],
            "type": "SCALAR"
        },
        {
            "bufferView": 1,
            "byteOffset": 404448,
            "componentType": 5126,
            "count": 1498,
            "max": [
                1.0,
                1.0,
                1.0
            ],
            "min": [
                -1.0,
                -1.0,
                -1.0
            ],
            "type": "VEC3"
        },
        {
            "bufferView": 1,
            "byteOffset": 422424,
            "componentType": 5126,
            "count": 1498,
            "max": [
                0.3275955021381378,
                0.8429337739944458,
                0.7547460794448853
            ],
            "min": [
                -0.19442535936832429,
                -0.017056547105312349,
                0.07950836420059204
            ],
            "type": "VEC3"
        },
        {
            "bufferView": 0,
            "byteOffset": 159102,
            "componentType": 5123,
            "count": 22986,
            "max": [
                5205
            ],
            "min": [
                0
            ],
            "type": "SCALAR"
        },
        {
            "bufferView": 1,
            "byteOffset": 440400,
            "componentType": 5126,
            "count": 5206,
            "max": [
                1.0,
                1.0,
                1.0
            ],
            "min": [
                -1.0,
                -1.0,
                -1.0
            ],
            "type": "VEC3"
        },
        {
            "bufferView": 1,
            "byteOffset": 502872,
            "componentType": 5126,
            "count": 5206,
            "max": [
                0.3275955021381378,
                0.744566023349762,
                0.6259939074516296
            ],
            "min": [
                -0.17275559902191166,
                -0.017056547105312349,
                0.2038366347551346
            ],
            "type": "VEC3"
        },
        {
            "bufferView": 0,
            "byteOffset": 205074,
            "componentType": 5123,
            "count": 21624,
            "max": [
                5610
            ],
            "min": [
                0
            ],
            "type": "SCALAR"
        },
        {
            "bufferView": 1,
            "byteOffset": 565344,
            "componentType": 5126,
            "count": 5611,
            "max": [
                1.0,
                1.0,
                1.0
            ],
            "min": [
                -1.0,
                -1.0,
                -1.0
            ],
            "type": "VEC3"
        },
        {
            "bufferView": 1,
            "byteOffset": 632676,
            "componentType": 5126,
            "count": 5611,
            "max": [
                0.3847270905971527,
                0.8433076739311218,
                0.8178662061691284
            ],
            "min": [
                -0.1653302013874054,
                0.4485461711883545,
                0.01786617748439312
            ],
            "type": "VEC3"
        }
    ],
    "materials": [
        {
            "pbrMetallicRoughness": {
                "baseColorFactor": [
                    1.0,
                    1.0,
                    1.0,
                    0.0
                ],
                "metallicFactor": 0.0
            },
            "name": "fx-a0000000-0000-0000-0000-000000000000"
        },
        {
            "pbrMetallicRoughness": {
                "baseColorFactor": [
                    1.0,
                    1.0,
                    1.0,
                    0.0
                ],
                "metallicFactor": 0.0
            },
            "name": "fx-a0000000-0000-0000-0000-000000000000"
        },
        {
            "pbrMetallicRoughness": {
                "baseColorFactor": [
                    1.0,
                    1.0,
                    1.0,
                    0.0
                ],
                "metallicFactor": 0.0
            },
            "name": "fx-a0000000-0000-0000-0000-000000000000"
        },
        {
            "pbrMetallicRoughness": {
                "baseColorFactor": [
                    1.0,
                    1.0,
                    1.0,
                    0.0
                ],
                "metallicFactor": 0.0
            },
            "name": "fx-a0000000-0000-0000-0000-000000000000"
        },
        {
            "pbrMetallicRoughness": {
                "baseColorFactor": [
                    1.0,
                    1.0,
                    1.0,
                    0.0
                ],
                "metallicFactor": 0.0
            },
            "name": "fx-a0000000-0000-0000-0000-000000000000"
        }
    ],
    "bufferViews": [
        {
            "buffer": 0,
            "byteOffset": 700008,
            "byteLength": 248322,
            "target": 34963
        },
        {
            "buffer": 0,
            "byteOffset": 0,
            "byteLength": 700008,
            "byteStride": 12,
            "target": 34962
        }
    ],
    "buffers": [
        {
            "byteLength": 948330,
            "uri": "data:application/octet-stream;base64,"
        }
    ]
}
